<svg width="32" height="31" viewBox="0 0 32 31" fill="none" xmlns="http://www.w3.org/2000/svg">
<path d="M25.16 30.48C23.32 30.48 21.8 29.84 20.6 28.56C19.4 27.36 18.8 25.84 18.8 24C18.8 23.04 18.96 22 19.28 20.88C19.52 19.76 19.92 18.48 20.48 17.04L25.52 0.479998H31.28L27.2 17.88C28.48 18.28 29.52 19 30.32 20.04C31.12 21.16 31.52 22.48 31.52 24C31.52 25.84 30.92 27.36 29.72 28.56C28.52 29.84 27 30.48 25.16 30.48ZM6.93031 30.48C5.09031 30.48 3.57031 29.84 2.37031 28.56C1.17031 27.36 0.570312 25.84 0.570312 24C0.570312 23.04 0.730312 22 1.05031 20.88C1.29031 19.76 1.69031 18.48 2.25031 17.04L7.29031 0.479998H13.0503L8.97031 17.88C10.2503 18.28 11.2903 19 12.0903 20.04C12.8903 21.16 13.2903 22.48 13.2903 24C13.2903 25.84 12.6903 27.36 11.4903 28.56C10.2903 29.84 8.77031 30.48 6.93031 30.48Z" fill="#4F68BB"/>
</svg>
