<svg width="30" height="30" viewBox="0 0 30 30" fill="none" xmlns="http://www.w3.org/2000/svg">
<path fill-rule="evenodd" clip-rule="evenodd" d="M30 15C30 23.3 23.3 30 15 30C6.7 30 0 23.3 0 15C0 6.7 6.7 0 15 0C23.3 0 30 6.7 30 15ZM24.8 10.2C24.9 9.7 24.8 9.4 24.1 9.4H21.9C21.3 9.4 21.1 9.7 20.9 10C20.9 10 19.8 12.8 18.1 14.6C17.6 15.1 17.3 15.3 17.1 15.3C17 15.3 16.7 15.1 16.7 14.7V10.2C16.7 9.6 16.5 9.4 16.1 9.4H12.6C12.2 9.4 12 9.7 12 9.9C12 10.4 12.8 10.6 12.9 12.1V15.4C12.9 16.1 12.8 16.3 12.5 16.3C11.7 16.3 9.9 13.5 8.8 10.3C8.6 9.7 8.4 9.4 7.8 9.4H5.4C4.8 9.4 4.6 9.7 4.6 10C4.6 10.6 5.4 13.5 8.2 17.5C10.1 20.2 12.7 21.6 15.1 21.6C16.5 21.6 16.7 21.3 16.7 20.7V18.7C16.7 18.1 16.8 17.9 17.3 17.9C17.6 17.9 18.2 18.1 19.5 19.4C21 20.9 21.3 21.6 22.1 21.6H24.4C25 21.6 25.4 21.3 25.2 20.6C25 20 24.3 19.1 23.3 18C22.8 17.4 22 16.7 21.8 16.4C21.5 16 21.6 15.8 21.8 15.4C21.7 15.4 24.5 11.5 24.8 10.2Z" fill="#4F68BB"/>
</svg>
