<svg width="78" height="79" viewBox="0 0 78 79" fill="none" xmlns="http://www.w3.org/2000/svg">
<path d="M49.6002 57.6517C39.3921 63.512 26.36 59.9876 20.4944 49.7778C14.6323 39.5646 18.1584 26.5343 28.3681 20.6669C38.5796 14.8066 51.6117 18.3328 57.4737 28.5442C63.3395 38.7538 59.8134 51.786 49.6002 57.6517ZM61.9478 17.6842C59.5907 15.1611 56.8716 13.0871 53.9155 11.4942L54.5997 3.21066L49.1137 1.72464L43.6256 0.242188L40.0407 7.73997C36.6836 7.62239 33.2895 8.04647 29.9825 9.04069L24.605 2.70106L19.6783 5.52878L14.7463 8.36004L17.5116 16.1982C14.9886 18.5555 12.9092 21.2745 11.3217 24.2305L3.03272 23.5463L1.55027 29.0324L0.0678101 34.5203L7.56206 38.1052C7.44804 41.4623 7.87389 44.8566 8.86812 48.1634L2.52669 53.541L5.35442 58.4676L8.18391 63.398L16.0238 60.6345C18.3829 63.1575 21.1019 65.2368 24.0526 66.8242L23.372 75.1079L28.8599 76.5957L34.3426 78.0781L37.933 70.5785C41.2863 70.6962 44.6841 70.2719 47.9912 69.2778L53.3684 75.6194L58.2951 72.7898L63.2255 69.9586L60.4565 62.122C62.983 59.7632 65.0589 57.0441 66.6517 54.0935L74.9355 54.7722L76.4216 49.2862L77.9039 43.7982L70.406 40.2133C70.5237 36.86 70.0998 33.462 69.1053 30.155L75.4452 24.7775L72.6174 19.8509L69.7844 14.9206L61.9478 17.6842Z" fill="#FD7583"/>
</svg>
