<svg width="66" height="66" viewBox="0 0 66 66" fill="none" xmlns="http://www.w3.org/2000/svg">
<path d="M35.203 50.6495C25.4162 51.8111 16.5414 44.8228 15.3797 35.0372C14.217 25.2534 21.2052 16.3785 30.991 15.2138C40.7748 14.0512 49.6496 21.0393 50.8122 30.8262C51.9769 40.6089 44.9856 49.4848 35.203 50.6495ZM57.8156 23.936C56.8298 21.2183 55.4194 18.7282 53.6673 16.5332L56.9098 10.3811L53.173 7.43799L49.4382 4.4959L44.2143 9.09003C41.6704 7.89902 38.9194 7.11245 36.0461 6.79094L33.9886 0.147461L29.2651 0.708583L24.5436 1.27071L24.0989 8.20941C21.3842 9.19617 18.891 10.6066 16.6971 12.3617L10.5439 9.11833L7.60184 12.8531L4.65874 16.5909L9.25285 21.8139C8.0649 24.3556 7.27832 27.1086 6.9568 29.9788L0.310303 32.0394L0.872436 36.7609L1.43356 41.4844L8.37528 41.9262C9.36204 44.6439 10.7724 47.134 12.5245 49.3291L9.2842 55.4842L13.0189 58.4243L16.7557 61.3673L21.9766 56.7733C24.5203 57.9633 27.2723 58.7498 30.1447 59.0713L32.2033 65.7148L36.9268 65.1557L41.6502 64.5945L42.092 57.6529C44.8097 56.6671 47.2998 55.2557 49.4949 53.5015L55.6469 56.744L58.5901 53.0092L61.5321 49.2724L56.938 44.0514C58.1259 41.5077 58.9135 38.7536 59.2371 35.8833L65.8806 33.8228L65.3194 29.1024L64.7574 24.3787L57.8156 23.936Z" fill="#FBC815"/>
</svg>
