<svg width="118" height="118" viewBox="0 0 118 118" fill="none" xmlns="http://www.w3.org/2000/svg">
<path d="M62.6685 91.727C44.7201 93.8427 28.4572 81.0105 26.3405 63.062C24.2249 45.1138 37.0572 28.8478 55.0054 26.7321C72.9538 24.6155 89.2198 37.4507 91.3363 55.3991C93.4521 73.3473 80.6167 89.6104 62.6685 91.727ZM106.631 65.8307C107.361 60.5813 107.209 55.3319 106.248 50.2729L116.78 43.0744L113.244 35.1013L109.708 27.1273L97.3042 30.1007C94.1963 25.9919 90.4085 22.3553 86.0278 19.374L88.385 6.83471L80.2466 3.69588L72.109 0.561035L65.4391 11.4362C60.1907 10.7049 54.9413 10.8583 49.8823 11.8194L42.6818 1.28733L34.7107 4.82341L26.7367 8.3595L29.7101 20.7635C25.6011 23.8682 21.9647 27.6591 18.9815 32.0368L6.4441 29.6824L3.30525 37.8209L0.167419 45.9584L11.0435 52.6283C10.3142 57.8798 10.4657 63.1264 11.4257 68.1851L0.893691 75.3837L4.43079 83.3577L7.96689 91.3308L20.3729 88.3575C23.4774 92.4664 27.2654 96.1027 31.6462 99.0871L29.2887 111.624L37.4274 114.762L45.5659 117.9L52.2377 107.024C57.4861 107.754 62.7358 107.602 67.7945 106.642L74.9931 117.174L82.9661 113.637L90.9401 110.101L87.9669 97.6948C92.0757 94.59 95.7121 90.8021 98.6934 86.4215L111.233 88.7788L114.372 80.6403L117.506 72.5018L106.631 65.8307Z" fill="#F7AB48"/>
</svg>
